# xmcd
#
# Track frame offsets:
#	183
#	16608
#	30383
#	44595
#	61970
#	77708
#	94620
#	117558
#	135370
#	155033
#	170733
#	191220
#	207220
#	221458
#	234595
#	249383
#	266933
#	281495
#	298095
#	313333
#	329170
#
# Disc length: 4612 seconds
#
# Revision: 6
# Processed by: cddbd v1.5.2PL0 Copyright (c) Steve Scherf et al.
# Submitted via: audiograbber 1.83.01
#
DISCID=41120215
DTITLE=Status Quo - If You Can't Stand The Heat and 1982
DYEAR=1991
DGENRE=Rock
TTITLE0=If You Can't Stand The Heat - Again And Again
TTITLE1=If You Can't Stand The Heat - I'm Giving Up My Worryin'
TTITLE2=If You Can't Stand The Heat - Gonna Teach You To Love Me
TTITLE3=If You Can't Stand The Heat - Someone Show Me Home
TTITLE4=If You Can't Stand The Heat - Long Legged Linda
TTITLE5=If You Can't Stand The Heat - Oh! What A Night
TTITLE6=If You Can't Stand The Heat - Accident Prone
TTITLE7=If You Can't Stand The Heat - Stones
TTITLE8=If You Can't Stand The Heat - Let Me Fly
TTITLE9=If You Can't Stand The Heat - Like A Good Girl
TTITLE10=1982 - She Don't Fool Me
TTITLE11=1982 - Young Pretender
TTITLE12=1982 - Get Out And Walk
TTITLE13=1982 - Jealousy
TTITLE14=1982 - I Love Rock And Roll
TTITLE15=1982 - Resurrection
TTITLE16=1982 - Dear John
TTITLE17=1982 - Doesn't Matter
TTITLE18=1982 - I Want The World To Know
TTITLE19=1982 - I Should Have Known
TTITLE20=1982 - Big Man
EXTD=
EXTT0=
EXTT1=
EXTT2=
EXTT3=
EXTT4=
EXTT5=
EXTT6=
EXTT7=
EXTT8=
EXTT9=
EXTT10=
EXTT11=
EXTT12=
EXTT13=
EXTT14=
EXTT15=
EXTT16=
EXTT17=
EXTT18=
EXTT19=
EXTT20=
PLAYORDER=
